<?xml version="1.0" encoding="iso-8859-1"?>
<!-- Generator: Adobe Illustrator 19.0.0, SVG Export Plug-In . SVG Version: 6.00 Build 0)  -->
<svg xmlns="http://www.w3.org/2000/svg" xmlns:xlink="http://www.w3.org/1999/xlink" version="1.1" id="Layer_1" x="0px" y="0px" viewBox="0 0 512 512" style="enable-background:new 0 0 512 512;" xml:space="preserve">
<rect x="28.934" y="467.979" style="fill:#B0BBBF;" width="70.009" height="35.937"/>
<rect x="98.94" y="390.801" style="fill:#C5D5DD;" width="44.089" height="113.114"/>
<rect x="143.037" y="426.34" style="fill:#85C8EB;" width="39.443" height="77.579"/>
<polygon style="fill:#B0BBBF;" points="182.476,332.141 182.476,379.831 182.476,405.093 182.476,503.916 231.883,503.916   231.883,332.141 "/>
<g style="opacity:0.1;">
	<polygon style="fill:#231F20;" points="207.859,379.831 207.859,332.141 182.476,332.141 182.476,379.831 182.476,405.093    182.476,503.916 207.859,503.916 207.859,405.093  "/>
</g>
<polygon style="fill:#85C8EB;" points="359.966,503.916 295.924,503.916 295.924,372.509 359.966,403.969 "/>
<g>
	<rect x="231.887" y="304.02" style="fill:#C5D5DD;" width="64.038" height="199.896"/>
	<rect x="399.92" y="390.801" style="fill:#C5D5DD;" width="81.284" height="113.114"/>
</g>
<path style="fill:#FFA233;" d="M398.088,113.912c6.367,6.369,15.165,10.309,24.883,10.309c19.438,0,35.194-15.757,35.194-35.193  s-15.757-35.192-35.194-35.192c-19.436,0-35.192,15.756-35.192,35.192C387.779,98.745,391.719,107.543,398.088,113.912"/>
<g>
	<path style="fill:#85C8EB;" d="M109.574,134.543c9.088,0,17.32,3.65,23.325,9.559c3.499-19.398,20.453-34.114,40.857-34.114   c22.622,0,41.006,18.087,41.508,40.592c2.707-0.957,5.616-1.482,8.648-1.482c14.349,0,25.977,11.629,25.977,25.978   c0,14.346-11.629,25.976-25.977,25.976H109.574c-18.366,0-33.253-14.89-33.253-33.254   C76.321,149.433,91.209,134.543,109.574,134.543z"/>
	<path style="fill:#85C8EB;" d="M80.943,150.887c5.79-9.781,16.441-16.344,28.632-16.344c9.088,0,17.32,3.65,23.325,9.559   c1.4-7.768,4.964-14.781,10.038-20.402c-2.7-8.346-10.532-14.385-19.777-14.385c-5.679,0-10.825,2.281-14.58,5.973   c-2.187-12.124-12.784-21.322-25.539-21.322c-14.14,0-25.633,11.304-25.945,25.373c-1.691-0.599-3.51-0.925-5.407-0.925   c-8.969,0-16.236,7.269-16.236,16.236c0,8.969,7.268,16.237,16.236,16.237h3.783"/>
	<path style="fill:#85C8EB;" d="M393.677,272.885h-10.567c-9.916,0-17.945-8.035-17.945-17.946c0-3.332,0.922-6.435,2.499-9.107   h-37.389c-9.913,0-17.946-8.035-17.946-17.946c0-9.912,8.032-17.948,17.946-17.948h84.184c9.914,0,17.948,8.036,17.948,17.948   c0,3.329-0.921,6.433-2.499,9.105h37.386c9.914,0,17.949,8.035,17.949,17.948c0,9.911-8.035,17.946-17.949,17.946h-48.715"/>
	<path style="fill:#85C8EB;" d="M245.572,40.332h-20.286h-18.128h-20.286c-7.545,0-13.662,6.116-13.662,13.662   s6.117,13.662,13.662,13.662h20.286h18.128h20.286c7.546,0,13.664-6.116,13.664-13.662   C259.237,46.448,253.119,40.332,245.572,40.332z"/>
</g>
<g style="opacity:0.1;">
	<rect x="36.993" y="466.427" style="fill:#231F20;" width="17.246" height="35.286"/>
</g>
<g style="opacity:0.1;">
	<rect x="107.078" y="397.075" style="fill:#231F20;" width="17.246" height="100.966"/>
</g>
<g style="opacity:0.1;">
	<rect x="151.089" y="423.667" style="fill:#231F20;" width="17.246" height="74.019"/>
</g>
<g style="opacity:0.1;">
	<rect x="304.063" y="383.472" style="fill:#231F20;" width="17.246" height="116.003"/>
</g>
<g style="opacity:0.1;">
	<rect x="407.983" y="390.801" style="fill:#231F20;" width="17.246" height="108.673"/>
</g>
<g style="opacity:0.1;">
	<rect x="240.015" y="309.054" style="fill:#231F20;" width="17.246" height="188.987"/>
</g>
<g>
	<path style="fill:#231F20;" d="M223.912,209.135H109.574c-22.793,0-41.337-18.544-41.337-41.338s18.544-41.338,41.337-41.338   c6.702,0,13.172,1.592,18.971,4.595c7.86-17.422,25.34-29.151,45.21-29.151c13.057,0,25.382,5.032,34.707,14.167   c7.038,6.895,11.776,15.546,13.794,24.985c0.551-0.026,1.103-0.04,1.656-0.04c18.781,0,34.061,15.28,34.061,34.063   C257.974,193.857,242.693,209.135,223.912,209.135z M109.574,142.627c-13.878,0-25.169,11.292-25.169,25.171   s11.291,25.17,25.169,25.17h114.338c9.866,0,17.893-8.026,17.893-17.892c0-9.866-8.027-17.894-17.893-17.894   c-2.037,0-4.04,0.343-5.953,1.02c-2.444,0.864-5.154,0.503-7.289-0.969c-2.133-1.473-3.431-3.882-3.488-6.473   c-0.401-18.025-15.397-32.688-33.426-32.688c-16.193,0-30.03,11.551-32.901,27.465c-0.532,2.949-2.652,5.364-5.509,6.27   c-2.859,0.907-5.981,0.157-8.118-1.943C122.487,145.198,116.216,142.627,109.574,142.627z"/>
	<path style="fill:#231F20;" d="M80.936,158.972c-1.4,0-2.818-0.363-4.11-1.129c-3.842-2.274-5.114-7.233-2.839-11.074   c7.416-12.528,21.052-20.311,35.589-20.311c6.708,0,13.182,1.594,18.985,4.603c1.341-2.958,2.973-5.783,4.877-8.437   c-2.341-3.226-6.119-5.225-10.277-5.225c-3.351,0-6.516,1.297-8.912,3.653c-2.136,2.101-5.26,2.849-8.117,1.94   c-2.855-0.908-4.976-3.32-5.507-6.269c-1.535-8.503-8.929-14.673-17.584-14.673c-9.635,0-17.649,7.836-17.863,17.467   c-0.057,2.593-1.355,5.001-3.489,6.474c-2.135,1.473-4.847,1.832-7.291,0.968c-0.866-0.306-1.776-0.462-2.708-0.462   c-4.495,0-8.152,3.657-8.152,8.152c0,4.496,3.657,8.153,8.152,8.153h3.783c4.465,0,8.084,3.618,8.084,8.084   s-3.62,8.084-8.084,8.084h-3.783c-13.41,0-24.321-10.91-24.321-24.322c0-12.974,10.212-23.607,23.021-24.285   c4.181-14.095,17.341-24.482,32.652-24.482c12.579,0,23.763,6.851,29.655,17.3c3.295-1.281,6.831-1.951,10.463-1.951   c12.564,0,23.604,8.029,27.469,19.98c0.889,2.749,0.245,5.761-1.69,7.905c-4.188,4.64-6.983,10.318-8.083,16.42   c-0.531,2.949-2.652,5.364-5.508,6.27c-2.856,0.907-5.981,0.161-8.118-1.943c-4.743-4.666-11.013-7.237-17.655-7.237   c-8.85,0-17.155,4.743-21.674,12.377C86.391,157.556,83.699,158.972,80.936,158.972z"/>
	<path style="fill:#231F20;" d="M422.971,132.305c-11.56,0-22.428-4.502-30.6-12.678c-8.175-8.173-12.677-19.041-12.677-30.6   c0-23.864,19.414-43.276,43.276-43.276c23.865,0,43.279,19.414,43.279,43.276S446.836,132.305,422.971,132.305z M422.971,61.919   c-14.947,0-27.108,12.161-27.108,27.108c0,7.24,2.82,14.047,7.941,19.167c5.121,5.122,11.927,7.942,19.167,7.942   c14.948,0,27.11-12.161,27.11-27.109C450.082,74.08,437.92,61.919,422.971,61.919z"/>
	<path style="fill:#231F20;" d="M503.916,97.112h-22.875c-4.466,0-8.084-3.618-8.084-8.084c0-4.466,3.618-8.084,8.084-8.084h22.875   c4.466,0,8.084,3.618,8.084,8.084C512,93.493,508.382,97.112,503.916,97.112z"/>
	<path style="fill:#231F20;" d="M364.904,97.112h-22.876c-4.466,0-8.084-3.618-8.084-8.084c0-4.466,3.618-8.084,8.084-8.084h22.876   c4.466,0,8.084,3.618,8.084,8.084C372.988,93.493,369.37,97.112,364.904,97.112z"/>
	<path style="fill:#231F20;" d="M464.034,56.052c-2.068,0-4.138-0.789-5.716-2.367c-3.158-3.157-3.158-8.276-0.001-11.432   l16.176-16.177c3.158-3.158,8.277-3.157,11.432-0.001c3.158,3.157,3.158,8.276,0.001,11.433L469.75,53.685   C468.172,55.263,466.102,56.052,464.034,56.052z"/>
	<path style="fill:#231F20;" d="M365.736,154.348c-2.069,0-4.138-0.789-5.716-2.367c-3.158-3.157-3.158-8.276-0.001-11.432   l16.176-16.177c3.158-3.158,8.277-3.157,11.432-0.001c3.158,3.157,3.158,8.276,0.001,11.432l-16.176,16.177   C369.874,153.559,367.805,154.348,365.736,154.348z"/>
	<path style="fill:#231F20;" d="M422.971,39.042L422.971,39.042c-4.466,0-8.084-3.62-8.084-8.084l0.001-22.874   c0-4.466,3.62-8.084,8.084-8.084l0,0c4.466,0,8.084,3.62,8.084,8.084l-0.001,22.874C431.055,35.423,427.436,39.042,422.971,39.042z   "/>
	<path style="fill:#231F20;" d="M422.971,178.055c-4.466,0-8.084-3.618-8.084-8.084v-22.876c0-4.466,3.618-8.084,8.084-8.084   c4.466,0,8.084,3.618,8.084,8.084v22.876C431.055,174.437,427.437,178.055,422.971,178.055z"/>
	<path style="fill:#231F20;" d="M381.912,56.052c-2.068,0-4.138-0.789-5.717-2.367l-16.176-16.176   c-3.157-3.158-3.157-8.276,0-11.433c3.158-3.156,8.276-3.156,11.433,0l16.176,16.176c3.157,3.158,3.157,8.276,0,11.433   C386.049,55.263,383.981,56.052,381.912,56.052z"/>
	<path style="fill:#231F20;" d="M480.21,154.349c-2.068,0-4.138-0.789-5.717-2.367l-16.176-16.176   c-3.157-3.158-3.157-8.276,0-11.433c3.158-3.156,8.276-3.156,11.434,0l16.176,16.176c3.157,3.158,3.157,8.276,0,11.433   C484.348,153.56,482.278,154.349,480.21,154.349z"/>
	<path style="fill:#231F20;" d="M467.294,280.969h-48.715c-4.466,0-8.084-3.618-8.084-8.084s3.618-8.084,8.084-8.084h48.714   c5.44,0,9.865-4.425,9.865-9.862c0-5.439-4.426-9.864-9.865-9.864h-37.386c-2.902,0-5.582-1.555-7.021-4.076   c-1.439-2.521-1.416-5.619,0.06-8.118c0.913-1.547,1.375-3.228,1.375-4.996c0-5.439-4.425-9.864-9.864-9.864h-84.184   c-5.438,0-9.862,4.425-9.862,9.864c0,5.438,4.424,9.862,9.862,9.862h37.389c2.902,0,5.582,1.555,7.021,4.076   c1.439,2.521,1.416,5.619-0.06,8.119c-0.913,1.547-1.375,3.227-1.375,4.997c0,5.438,4.424,9.862,9.861,9.862h10.567   c4.466,0,8.084,3.618,8.084,8.084s-3.618,8.084-8.084,8.084H383.11c-14.352,0-26.029-11.677-26.029-26.03   c0-0.341,0.007-0.683,0.021-1.023h-26.826c-14.353,0-26.03-11.677-26.03-26.03c0-14.354,11.677-26.032,26.03-26.032h84.184   c14.354,0,26.032,11.678,26.032,26.032c0,0.341-0.006,0.681-0.019,1.021h26.822c14.354,0,26.033,11.678,26.033,26.032   C493.328,269.293,481.649,280.969,467.294,280.969z"/>
	<path style="fill:#231F20;" d="M245.572,75.74h-58.7c-11.99,0-21.747-9.756-21.747-21.747s9.756-21.747,21.747-21.747h58.7   c11.993,0,21.749,9.756,21.749,21.747S257.565,75.74,245.572,75.74z M186.872,48.416c-3.076,0-5.578,2.502-5.578,5.578   c0,3.076,2.503,5.578,5.578,5.578h58.7c3.077,0,5.58-2.502,5.58-5.578c0-3.076-2.503-5.578-5.58-5.578H186.872z"/>
	<path style="fill:#231F20;" d="M271.82,340.226H255.98c-4.466,0-8.084-3.618-8.084-8.084c0-4.465,3.618-8.084,8.084-8.084h15.841   c4.466,0,8.084,3.62,8.084,8.084C279.904,336.606,276.285,340.226,271.82,340.226z"/>
	<path style="fill:#231F20;" d="M271.82,368.375H255.98c-4.466,0-8.084-3.618-8.084-8.084c0-4.466,3.618-8.084,8.084-8.084h15.841   c4.466,0,8.084,3.618,8.084,8.084C279.904,364.755,276.285,368.375,271.82,368.375z"/>
	<path style="fill:#231F20;" d="M271.82,396.524H255.98c-4.466,0-8.084-3.618-8.084-8.084s3.618-8.084,8.084-8.084h15.841   c4.466,0,8.084,3.618,8.084,8.084S276.285,396.524,271.82,396.524z"/>
	<path style="fill:#231F20;" d="M271.82,424.673H255.98c-4.466,0-8.084-3.618-8.084-8.084c0-4.465,3.618-8.084,8.084-8.084h15.841   c4.466,0,8.084,3.62,8.084,8.084C279.904,421.055,276.285,424.673,271.82,424.673z"/>
	<path style="fill:#231F20;" d="M271.82,452.824H255.98c-4.466,0-8.084-3.618-8.084-8.084s3.618-8.084,8.084-8.084h15.841   c4.466,0,8.084,3.618,8.084,8.084C279.904,449.204,276.285,452.824,271.82,452.824z"/>
	<path style="fill:#231F20;" d="M271.82,480.973H255.98c-4.466,0-8.084-3.618-8.084-8.084c0-4.466,3.618-8.084,8.084-8.084h15.841   c4.466,0,8.084,3.618,8.084,8.084C279.904,477.354,276.285,480.973,271.82,480.973z"/>
	<path style="fill:#231F20;" d="M456.858,424.673h-32.337c-4.466,0-8.084-3.618-8.084-8.084c0-4.465,3.618-8.084,8.084-8.084h32.337   c4.466,0,8.084,3.62,8.084,8.084C464.942,421.055,461.323,424.673,456.858,424.673z"/>
	<path style="fill:#231F20;" d="M456.858,452.824h-32.337c-4.466,0-8.084-3.618-8.084-8.084s3.618-8.084,8.084-8.084h32.337   c4.466,0,8.084,3.618,8.084,8.084C464.942,449.204,461.323,452.824,456.858,452.824z"/>
	<path style="fill:#231F20;" d="M456.858,480.973h-32.337c-4.466,0-8.084-3.618-8.084-8.084c0-4.466,3.618-8.084,8.084-8.084h32.337   c4.466,0,8.084,3.618,8.084,8.084C464.942,477.354,461.323,480.973,456.858,480.973z"/>
	<path style="fill:#231F20;" d="M503.916,495.832H489.29V390.805c0-4.466-3.618-8.084-8.084-8.084h-81.286   c-4.466,0-8.084,3.618-8.084,8.084v105.027h-23.784v-91.862c0-3.082-1.753-5.897-4.52-7.255l-59.522-29.24v-63.449   c0-4.466-3.618-8.084-8.084-8.084h-23.937v-28.948c0-4.466-3.618-8.084-8.084-8.084s-8.084,3.618-8.084,8.084v28.948h-23.937   c-4.465,0-8.084,3.618-8.084,8.084v20.033h-41.322c-4.465,0-8.084,3.618-8.084,8.084v47.689c0,4.466,3.62,8.084,8.084,8.084   c4.465,0,8.084-3.618,8.084-8.084v-39.605h33.238v155.606h-33.238v-69.495v-21.243c0-4.466-3.62-8.084-8.084-8.084   c-4.465,0-8.084,3.618-8.084,8.084v13.159h-23.275v-27.448c0-4.466-3.62-8.084-8.084-8.084h-44.09   c-4.465,0-8.084,3.618-8.084,8.084v69.087H28.934c-4.465,0-8.084,3.618-8.084,8.084v27.856H8.084C3.62,495.832,0,499.45,0,503.916   S3.62,512,8.084,512h20.85h70.009h44.089h39.443h49.406h64.042h64.042h39.952h81.286h22.711c4.466,0,8.084-3.618,8.084-8.084   S508.382,495.832,503.916,495.832z M37.018,476.06h53.841v19.772H37.018V476.06z M107.027,467.976v-69.087h27.921v27.447v69.495   h-27.921V467.976z M151.117,434.421h23.275v61.411h-23.275V434.421z M239.966,332.141v-20.033h47.874v60.4v123.323h-47.874V332.141   z M304.008,495.832V385.487l47.874,23.517v86.827H304.008z M408.004,495.832v-96.943h65.118v96.943H408.004z"/>
</g>
<g>
</g>
<g>
</g>
<g>
</g>
<g>
</g>
<g>
</g>
<g>
</g>
<g>
</g>
<g>
</g>
<g>
</g>
<g>
</g>
<g>
</g>
<g>
</g>
<g>
</g>
<g>
</g>
<g>
</g>
</svg>
